<?xml version="1.0" encoding="UTF-8" standalone="no"?>
<!DOCTYPE svg PUBLIC "-//W3C//DTD SVG 1.1//EN"
 "http://www.w3.org/Graphics/SVG/1.1/DTD/svg11.dtd">
<!-- Generated by graphviz version 2.40.1 (20161225.0304)
 -->
<!-- Title: dependencies Pages: 1 -->
<svg width="3968pt" height="284pt"
 viewBox="0.00 0.00 3968.00 284.00" xmlns="http://www.w3.org/2000/svg" xmlns:xlink="http://www.w3.org/1999/xlink">
<g id="graph0" class="graph" transform="scale(1 1) rotate(0) translate(4 280)">
<title>dependencies</title>
<polygon fill="#ffffff" stroke="transparent" points="-4,4 -4,-280 3964,-280 3964,4 -4,4"/>
<text text-anchor="start" x="1959.0091" y="-42.4" font-family="sans-serif" font-weight="bold" font-size="14.00" fill="#000000">Legend</text>
<polygon fill="#ffffb3" stroke="transparent" points="1746,-10 1746,-30 1766,-30 1766,-10 1746,-10"/>
<text text-anchor="start" x="1769.629" y="-15.4" font-family="sans-serif" font-size="14.00" fill="#000000"> &#160;Declarations</text>
<polygon fill="#8dd3c7" stroke="transparent" points="1859,-10 1859,-30 1879,-30 1879,-10 1859,-10"/>
<text text-anchor="start" x="1882.7251" y="-15.4" font-family="sans-serif" font-size="14.00" fill="#000000"> &#160;Module</text>
<polygon fill="#80b1d3" stroke="transparent" points="1945,-10 1945,-30 1965,-30 1965,-10 1945,-10"/>
<text text-anchor="start" x="1968.7812" y="-15.4" font-family="sans-serif" font-size="14.00" fill="#000000"> &#160;Bootstrap</text>
<polygon fill="#fdb462" stroke="transparent" points="2042,-10 2042,-30 2062,-30 2062,-10 2042,-10"/>
<text text-anchor="start" x="2065.6732" y="-15.4" font-family="sans-serif" font-size="14.00" fill="#000000"> &#160;Providers</text>
<polygon fill="#fb8072" stroke="transparent" points="2138,-10 2138,-30 2158,-30 2158,-10 2138,-10"/>
<text text-anchor="start" x="2161.7258" y="-15.4" font-family="sans-serif" font-size="14.00" fill="#000000"> &#160;Exports</text>
<g id="clust1" class="cluster">
<title>cluster_AppModule</title>
<polygon fill="none" stroke="#000000" stroke-dasharray="1,5" points="8,-70 8,-268 3952,-268 3952,-70 8,-70"/>
</g>
<g id="clust2" class="cluster">
<title>cluster_AppModule_declarations</title>
<polygon fill="none" stroke="#000000" points="780,-78 780,-130 3944,-130 3944,-78 780,-78"/>
</g>
<g id="clust26" class="cluster">
<title>cluster_AppModule_bootstrap</title>
<polygon fill="none" stroke="#000000" points="1939,-208 1939,-260 2063,-260 2063,-208 1939,-208"/>
</g>
<g id="clust27" class="cluster">
<title>cluster_AppModule_providers</title>
<polygon fill="none" stroke="#000000" points="16,-78 16,-130 772,-130 772,-78 16,-78"/>
</g>
<!-- AddUserComponent -->
<g id="node1" class="node">
<title>AddUserComponent</title>
<polygon fill="#ffffb3" stroke="#000000" points="3935.8655,-122 3804.1345,-122 3804.1345,-86 3935.8655,-86 3935.8655,-122"/>
<text text-anchor="middle" x="3870" y="-99.8" font-family="Times,serif" font-size="14.00" fill="#000000">AddUserComponent</text>
</g>
<!-- AppModule -->
<g id="node22" class="node">
<title>AppModule</title>
<polygon fill="#8dd3c7" stroke="#000000" points="2042.6571,-187 2039.6571,-191 2018.6571,-191 2015.6571,-187 1959.3429,-187 1959.3429,-151 2042.6571,-151 2042.6571,-187"/>
<text text-anchor="middle" x="2001" y="-164.8" font-family="Times,serif" font-size="14.00" fill="#000000">AppModule</text>
</g>
<!-- AddUserComponent&#45;&gt;AppModule -->
<g id="edge1" class="edge">
<title>AddUserComponent&#45;&gt;AppModule</title>
<path fill="none" stroke="#000000" d="M3870,-122.3802C3870,-146.2785 3870,-185 3870,-185 3870,-185 2052.6572,-185 2052.6572,-185"/>
<polygon fill="#000000" stroke="#000000" points="2052.6572,-181.5001 2042.6572,-185 2052.6572,-188.5001 2052.6572,-181.5001"/>
</g>
<!-- AppComponent -->
<g id="node2" class="node">
<title>AppComponent</title>
<polygon fill="#ffffb3" stroke="#000000" points="3785.9399,-122 3680.0601,-122 3680.0601,-86 3785.9399,-86 3785.9399,-122"/>
<text text-anchor="middle" x="3733" y="-99.8" font-family="Times,serif" font-size="14.00" fill="#000000">AppComponent</text>
</g>
<!-- AppComponent&#45;&gt;AppModule -->
<g id="edge2" class="edge">
<title>AppComponent&#45;&gt;AppModule</title>
<path fill="none" stroke="#000000" d="M3733,-122.0908C3733,-145.1328 3733,-182 3733,-182 3733,-182 2052.9555,-182 2052.9555,-182"/>
<polygon fill="#000000" stroke="#000000" points="2052.9556,-178.5001 2042.9555,-182 2052.9555,-185.5001 2052.9556,-178.5001"/>
</g>
<!-- CalendarComponent -->
<g id="node3" class="node">
<title>CalendarComponent</title>
<polygon fill="#ffffb3" stroke="#000000" points="3661.8641,-122 3530.1359,-122 3530.1359,-86 3661.8641,-86 3661.8641,-122"/>
<text text-anchor="middle" x="3596" y="-99.8" font-family="Times,serif" font-size="14.00" fill="#000000">CalendarComponent</text>
</g>
<!-- CalendarComponent&#45;&gt;AppModule -->
<g id="edge3" class="edge">
<title>CalendarComponent&#45;&gt;AppModule</title>
<path fill="none" stroke="#000000" d="M3596,-122.1554C3596,-144.3519 3596,-179 3596,-179 3596,-179 2052.8425,-179 2052.8425,-179"/>
<polygon fill="#000000" stroke="#000000" points="2052.8426,-175.5001 2042.8425,-179 2052.8425,-182.5001 2052.8426,-175.5001"/>
</g>
<!-- CalendarDetailComponent -->
<g id="node4" class="node">
<title>CalendarDetailComponent</title>
<polygon fill="#ffffb3" stroke="#000000" points="3512.0716,-122 3345.9284,-122 3345.9284,-86 3512.0716,-86 3512.0716,-122"/>
<text text-anchor="middle" x="3429" y="-99.8" font-family="Times,serif" font-size="14.00" fill="#000000">CalendarDetailComponent</text>
</g>
<!-- CalendarDetailComponent&#45;&gt;AppModule -->
<g id="edge4" class="edge">
<title>CalendarDetailComponent&#45;&gt;AppModule</title>
<path fill="none" stroke="#000000" d="M3429,-122.1686C3429,-143.498 3429,-176 3429,-176 3429,-176 2052.964,-176 2052.964,-176"/>
<polygon fill="#000000" stroke="#000000" points="2052.964,-172.5001 2042.964,-176 2052.9639,-179.5001 2052.964,-172.5001"/>
</g>
<!-- DashboardComponent -->
<g id="node5" class="node">
<title>DashboardComponent</title>
<polygon fill="#ffffb3" stroke="#000000" points="3327.9734,-122 3186.0266,-122 3186.0266,-86 3327.9734,-86 3327.9734,-122"/>
<text text-anchor="middle" x="3257" y="-99.8" font-family="Times,serif" font-size="14.00" fill="#000000">DashboardComponent</text>
</g>
<!-- DashboardComponent&#45;&gt;AppModule -->
<g id="edge5" class="edge">
<title>DashboardComponent&#45;&gt;AppModule</title>
<path fill="none" stroke="#000000" d="M3257,-122.0267C3257,-142.7672 3257,-174 3257,-174 3257,-174 2052.7894,-174 2052.7894,-174"/>
<polygon fill="#000000" stroke="#000000" points="2052.7894,-170.5001 2042.7894,-174 2052.7893,-177.5001 2052.7894,-170.5001"/>
</g>
<!-- DateTimePickerComponent -->
<g id="node6" class="node">
<title>DateTimePickerComponent</title>
<polygon fill="#ffffb3" stroke="#000000" points="3167.5702,-122 2994.4298,-122 2994.4298,-86 3167.5702,-86 3167.5702,-122"/>
<text text-anchor="middle" x="3081" y="-99.8" font-family="Times,serif" font-size="14.00" fill="#000000">DateTimePickerComponent</text>
</g>
<!-- DateTimePickerComponent&#45;&gt;AppModule -->
<g id="edge6" class="edge">
<title>DateTimePickerComponent&#45;&gt;AppModule</title>
<path fill="none" stroke="#000000" d="M3081,-122.308C3081,-142.1455 3081,-171 3081,-171 3081,-171 2052.6755,-171 2052.6755,-171"/>
<polygon fill="#000000" stroke="#000000" points="2052.6756,-167.5001 2042.6755,-171 2052.6755,-174.5001 2052.6756,-167.5001"/>
</g>
<!-- DiagramsComponent -->
<g id="node7" class="node">
<title>DiagramsComponent</title>
<polygon fill="#ffffb3" stroke="#000000" points="2976.7548,-122 2841.2452,-122 2841.2452,-86 2976.7548,-86 2976.7548,-122"/>
<text text-anchor="middle" x="2909" y="-99.8" font-family="Times,serif" font-size="14.00" fill="#000000">DiagramsComponent</text>
</g>
<!-- DiagramsComponent&#45;&gt;AppModule -->
<g id="edge7" class="edge">
<title>DiagramsComponent&#45;&gt;AppModule</title>
<path fill="none" stroke="#000000" d="M2909,-122.1686C2909,-141.0898 2909,-168 2909,-168 2909,-168 2052.6735,-168 2052.6735,-168"/>
<polygon fill="#000000" stroke="#000000" points="2052.6736,-164.5001 2042.6735,-168 2052.6735,-171.5001 2052.6736,-164.5001"/>
</g>
<!-- FilterPipe -->
<g id="node8" class="node">
<title>FilterPipe</title>
<polygon fill="#ffffb3" stroke="#000000" points="2823.7177,-122 2752.2823,-122 2752.2823,-86 2823.7177,-86 2823.7177,-122"/>
<text text-anchor="middle" x="2788" y="-99.8" font-family="Times,serif" font-size="14.00" fill="#000000">FilterPipe</text>
</g>
<!-- FilterPipe&#45;&gt;AppModule -->
<g id="edge8" class="edge">
<title>FilterPipe&#45;&gt;AppModule</title>
<path fill="none" stroke="#000000" d="M2788,-122.302C2788,-140.2699 2788,-165 2788,-165 2788,-165 2052.7569,-165 2052.7569,-165"/>
<polygon fill="#000000" stroke="#000000" points="2052.7569,-161.5001 2042.7569,-165 2052.7568,-168.5001 2052.7569,-161.5001"/>
</g>
<!-- FooterComponent -->
<g id="node9" class="node">
<title>FooterComponent</title>
<polygon fill="#ffffb3" stroke="#000000" points="2733.8809,-122 2616.1191,-122 2616.1191,-86 2733.8809,-86 2733.8809,-122"/>
<text text-anchor="middle" x="2675" y="-99.8" font-family="Times,serif" font-size="14.00" fill="#000000">FooterComponent</text>
</g>
<!-- FooterComponent&#45;&gt;AppModule -->
<g id="edge9" class="edge">
<title>FooterComponent&#45;&gt;AppModule</title>
<path fill="none" stroke="#000000" d="M2675,-122.0225C2675,-139.3734 2675,-163 2675,-163 2675,-163 2052.9071,-163 2052.9071,-163"/>
<polygon fill="#000000" stroke="#000000" points="2052.9071,-159.5001 2042.9071,-163 2052.907,-166.5001 2052.9071,-159.5001"/>
</g>
<!-- HeaderComponent -->
<g id="node10" class="node">
<title>HeaderComponent</title>
<polygon fill="#ffffb3" stroke="#000000" points="2597.7437,-122 2476.2563,-122 2476.2563,-86 2597.7437,-86 2597.7437,-122"/>
<text text-anchor="middle" x="2537" y="-99.8" font-family="Times,serif" font-size="14.00" fill="#000000">HeaderComponent</text>
</g>
<!-- HeaderComponent&#45;&gt;AppModule -->
<g id="edge10" class="edge">
<title>HeaderComponent&#45;&gt;AppModule</title>
<path fill="none" stroke="#000000" d="M2537,-122.027C2537,-138.3976 2537,-160 2537,-160 2537,-160 2053.059,-160 2053.059,-160"/>
<polygon fill="#000000" stroke="#000000" points="2053.0591,-156.5001 2043.059,-160 2053.059,-163.5001 2053.0591,-156.5001"/>
</g>
<!-- HomeComponent -->
<g id="node11" class="node">
<title>HomeComponent</title>
<polygon fill="#ffffb3" stroke="#000000" points="2457.5451,-122 2342.4549,-122 2342.4549,-86 2457.5451,-86 2457.5451,-122"/>
<text text-anchor="middle" x="2400" y="-99.8" font-family="Times,serif" font-size="14.00" fill="#000000">HomeComponent</text>
</g>
<!-- HomeComponent&#45;&gt;AppModule -->
<g id="edge11" class="edge">
<title>HomeComponent&#45;&gt;AppModule</title>
<path fill="none" stroke="#000000" d="M2400,-122.2396C2400,-137.5706 2400,-157 2400,-157 2400,-157 2052.9459,-157 2052.9459,-157"/>
<polygon fill="#000000" stroke="#000000" points="2052.9459,-153.5001 2042.9459,-157 2052.9458,-160.5001 2052.9459,-153.5001"/>
</g>
<!-- InformationComponent -->
<g id="node12" class="node">
<title>InformationComponent</title>
<polygon fill="#ffffb3" stroke="#000000" points="2324.2007,-122 2175.7993,-122 2175.7993,-86 2324.2007,-86 2324.2007,-122"/>
<text text-anchor="middle" x="2250" y="-99.8" font-family="Times,serif" font-size="14.00" fill="#000000">InformationComponent</text>
</g>
<!-- InformationComponent&#45;&gt;AppModule -->
<g id="edge12" class="edge">
<title>InformationComponent&#45;&gt;AppModule</title>
<path fill="none" stroke="#000000" d="M2250,-122.0511C2250,-136.373 2250,-154 2250,-154 2250,-154 2052.677,-154 2052.677,-154"/>
<polygon fill="#000000" stroke="#000000" points="2052.677,-150.5001 2042.677,-154 2052.677,-157.5001 2052.677,-150.5001"/>
</g>
<!-- LoginFormComponent -->
<g id="node13" class="node">
<title>LoginFormComponent</title>
<polygon fill="#ffffb3" stroke="#000000" points="2157.6094,-122 2012.3906,-122 2012.3906,-86 2157.6094,-86 2157.6094,-122"/>
<text text-anchor="middle" x="2085" y="-99.8" font-family="Times,serif" font-size="14.00" fill="#000000">LoginFormComponent</text>
</g>
<!-- LoginFormComponent&#45;&gt;AppModule -->
<g id="edge13" class="edge">
<title>LoginFormComponent&#45;&gt;AppModule</title>
<path fill="none" stroke="#000000" d="M2027.6368,-122.1061C2027.6368,-122.1061 2027.6368,-140.991 2027.6368,-140.991"/>
<polygon fill="#000000" stroke="#000000" points="2024.1368,-140.9909 2027.6368,-150.991 2031.1368,-140.991 2024.1368,-140.9909"/>
</g>
<!-- ManageUserComponent -->
<g id="node14" class="node">
<title>ManageUserComponent</title>
<polygon fill="#ffffb3" stroke="#000000" points="1994.3473,-122 1841.6527,-122 1841.6527,-86 1994.3473,-86 1994.3473,-122"/>
<text text-anchor="middle" x="1918" y="-99.8" font-family="Times,serif" font-size="14.00" fill="#000000">ManageUserComponent</text>
</g>
<!-- ManageUserComponent&#45;&gt;AppModule -->
<g id="edge14" class="edge">
<title>ManageUserComponent&#45;&gt;AppModule</title>
<path fill="none" stroke="#000000" d="M1976.7977,-122.1061C1976.7977,-122.1061 1976.7977,-140.991 1976.7977,-140.991"/>
<polygon fill="#000000" stroke="#000000" points="1973.2978,-140.9909 1976.7977,-150.991 1980.2978,-140.991 1973.2978,-140.9909"/>
</g>
<!-- OrderByPipe -->
<g id="node15" class="node">
<title>OrderByPipe</title>
<polygon fill="#ffffb3" stroke="#000000" points="1823.8669,-122 1734.1331,-122 1734.1331,-86 1823.8669,-86 1823.8669,-122"/>
<text text-anchor="middle" x="1779" y="-99.8" font-family="Times,serif" font-size="14.00" fill="#000000">OrderByPipe</text>
</g>
<!-- OrderByPipe&#45;&gt;AppModule -->
<g id="edge15" class="edge">
<title>OrderByPipe&#45;&gt;AppModule</title>
<path fill="none" stroke="#000000" d="M1779,-122.0511C1779,-136.373 1779,-154 1779,-154 1779,-154 1949.2435,-154 1949.2435,-154"/>
<polygon fill="#000000" stroke="#000000" points="1949.2435,-157.5001 1959.2435,-154 1949.2435,-150.5001 1949.2435,-157.5001"/>
</g>
<!-- PasswordComponent -->
<g id="node16" class="node">
<title>PasswordComponent</title>
<polygon fill="#ffffb3" stroke="#000000" points="1716.486,-122 1581.514,-122 1581.514,-86 1716.486,-86 1716.486,-122"/>
<text text-anchor="middle" x="1649" y="-99.8" font-family="Times,serif" font-size="14.00" fill="#000000">PasswordComponent</text>
</g>
<!-- PasswordComponent&#45;&gt;AppModule -->
<g id="edge16" class="edge">
<title>PasswordComponent&#45;&gt;AppModule</title>
<path fill="none" stroke="#000000" d="M1649,-122.2396C1649,-137.5706 1649,-157 1649,-157 1649,-157 1949.2387,-157 1949.2387,-157"/>
<polygon fill="#000000" stroke="#000000" points="1949.2387,-160.5001 1959.2387,-157 1949.2387,-153.5001 1949.2387,-160.5001"/>
</g>
<!-- PlanningComponent -->
<g id="node17" class="node">
<title>PlanningComponent</title>
<polygon fill="#ffffb3" stroke="#000000" points="1563.6108,-122 1432.3892,-122 1432.3892,-86 1563.6108,-86 1563.6108,-122"/>
<text text-anchor="middle" x="1498" y="-99.8" font-family="Times,serif" font-size="14.00" fill="#000000">PlanningComponent</text>
</g>
<!-- PlanningComponent&#45;&gt;AppModule -->
<g id="edge17" class="edge">
<title>PlanningComponent&#45;&gt;AppModule</title>
<path fill="none" stroke="#000000" d="M1498,-122.027C1498,-138.3976 1498,-160 1498,-160 1498,-160 1948.9797,-160 1948.9797,-160"/>
<polygon fill="#000000" stroke="#000000" points="1948.9797,-163.5001 1958.9797,-160 1948.9796,-156.5001 1948.9797,-163.5001"/>
</g>
<!-- ProtocolComponent -->
<g id="node18" class="node">
<title>ProtocolComponent</title>
<polygon fill="#ffffb3" stroke="#000000" points="1414.2716,-122 1285.7284,-122 1285.7284,-86 1414.2716,-86 1414.2716,-122"/>
<text text-anchor="middle" x="1350" y="-99.8" font-family="Times,serif" font-size="14.00" fill="#000000">ProtocolComponent</text>
</g>
<!-- ProtocolComponent&#45;&gt;AppModule -->
<g id="edge18" class="edge">
<title>ProtocolComponent&#45;&gt;AppModule</title>
<path fill="none" stroke="#000000" d="M1350,-122.0225C1350,-139.3734 1350,-163 1350,-163 1350,-163 1949.2867,-163 1949.2867,-163"/>
<polygon fill="#000000" stroke="#000000" points="1949.2867,-166.5001 1959.2867,-163 1949.2867,-159.5001 1949.2867,-166.5001"/>
</g>
<!-- ShowplanningComponent -->
<g id="node19" class="node">
<title>ShowplanningComponent</title>
<polygon fill="#ffffb3" stroke="#000000" points="1268.2175,-122 1105.7825,-122 1105.7825,-86 1268.2175,-86 1268.2175,-122"/>
<text text-anchor="middle" x="1187" y="-99.8" font-family="Times,serif" font-size="14.00" fill="#000000">ShowplanningComponent</text>
</g>
<!-- ShowplanningComponent&#45;&gt;AppModule -->
<g id="edge19" class="edge">
<title>ShowplanningComponent&#45;&gt;AppModule</title>
<path fill="none" stroke="#000000" d="M1187,-122.302C1187,-140.2699 1187,-165 1187,-165 1187,-165 1949.2326,-165 1949.2326,-165"/>
<polygon fill="#000000" stroke="#000000" points="1949.2327,-168.5001 1959.2326,-165 1949.2326,-161.5001 1949.2327,-168.5001"/>
</g>
<!-- ShowprotocolComponent -->
<g id="node20" class="node">
<title>ShowprotocolComponent</title>
<polygon fill="#ffffb3" stroke="#000000" points="1087.878,-122 928.122,-122 928.122,-86 1087.878,-86 1087.878,-122"/>
<text text-anchor="middle" x="1008" y="-99.8" font-family="Times,serif" font-size="14.00" fill="#000000">ShowprotocolComponent</text>
</g>
<!-- ShowprotocolComponent&#45;&gt;AppModule -->
<g id="edge20" class="edge">
<title>ShowprotocolComponent&#45;&gt;AppModule</title>
<path fill="none" stroke="#000000" d="M1008,-122.1686C1008,-141.0898 1008,-168 1008,-168 1008,-168 1949.2818,-168 1949.2818,-168"/>
<polygon fill="#000000" stroke="#000000" points="1949.2818,-171.5001 1959.2818,-168 1949.2818,-164.5001 1949.2818,-171.5001"/>
</g>
<!-- TerminComponent -->
<g id="node21" class="node">
<title>TerminComponent</title>
<polygon fill="#ffffb3" stroke="#000000" points="910.0423,-122 787.9577,-122 787.9577,-86 910.0423,-86 910.0423,-122"/>
<text text-anchor="middle" x="849" y="-99.8" font-family="Times,serif" font-size="14.00" fill="#000000">TerminComponent</text>
</g>
<!-- TerminComponent&#45;&gt;AppModule -->
<g id="edge21" class="edge">
<title>TerminComponent&#45;&gt;AppModule</title>
<path fill="none" stroke="#000000" d="M849,-122.308C849,-142.1455 849,-171 849,-171 849,-171 1949.3191,-171 1949.3191,-171"/>
<polygon fill="#000000" stroke="#000000" points="1949.3192,-174.5001 1959.3191,-171 1949.3191,-167.5001 1949.3192,-174.5001"/>
</g>
<!-- AppComponent  -->
<g id="node23" class="node">
<title>AppComponent </title>
<polygon fill="#80b1d3" stroke="#000000" points="2055.439,-252 1946.561,-252 1946.561,-216 2055.439,-216 2055.439,-252"/>
<text text-anchor="middle" x="2001" y="-229.8" font-family="Times,serif" font-size="14.00" fill="#000000">AppComponent </text>
</g>
<!-- AppModule&#45;&gt;AppComponent  -->
<g id="edge22" class="edge">
<title>AppModule&#45;&gt;AppComponent </title>
<path fill="none" stroke="#000000" stroke-dasharray="1,5" d="M2001,-187.1061C2001,-187.1061 2001,-205.991 2001,-205.991"/>
<polygon fill="#000000" stroke="#000000" points="1997.5001,-205.9909 2001,-215.991 2004.5001,-205.991 1997.5001,-205.9909"/>
</g>
<!-- AuthService -->
<g id="node24" class="node">
<title>AuthService</title>
<ellipse fill="#fdb462" stroke="#000000" cx="705" cy="-104" rx="59.1083" ry="18"/>
<text text-anchor="middle" x="705" y="-99.8" font-family="Times,serif" font-size="14.00" fill="#000000">AuthService</text>
</g>
<!-- AuthService&#45;&gt;AppModule -->
<g id="edge23" class="edge">
<title>AuthService&#45;&gt;AppModule</title>
<path fill="none" stroke="#000000" d="M705,-122.0267C705,-142.7672 705,-174 705,-174 705,-174 1948.9828,-174 1948.9828,-174"/>
<polygon fill="#000000" stroke="#000000" points="1948.9829,-177.5001 1958.9828,-174 1948.9828,-170.5001 1948.9829,-177.5001"/>
</g>
<!-- MessagingService -->
<g id="node25" class="node">
<title>MessagingService</title>
<ellipse fill="#fdb462" stroke="#000000" cx="546" cy="-104" rx="81.6596" ry="18"/>
<text text-anchor="middle" x="546" y="-99.8" font-family="Times,serif" font-size="14.00" fill="#000000">MessagingService</text>
</g>
<!-- MessagingService&#45;&gt;AppModule -->
<g id="edge24" class="edge">
<title>MessagingService&#45;&gt;AppModule</title>
<path fill="none" stroke="#000000" d="M546,-122.1686C546,-143.498 546,-176 546,-176 546,-176 1949.0238,-176 1949.0238,-176"/>
<polygon fill="#000000" stroke="#000000" points="1949.0239,-179.5001 1959.0238,-176 1949.0238,-172.5001 1949.0239,-179.5001"/>
</g>
<!-- RestService -->
<g id="node26" class="node">
<title>RestService</title>
<ellipse fill="#fdb462" stroke="#000000" cx="389" cy="-104" rx="57.3166" ry="18"/>
<text text-anchor="middle" x="389" y="-99.8" font-family="Times,serif" font-size="14.00" fill="#000000">RestService</text>
</g>
<!-- RestService&#45;&gt;AppModule -->
<g id="edge25" class="edge">
<title>RestService&#45;&gt;AppModule</title>
<path fill="none" stroke="#000000" d="M389,-122.1554C389,-144.3519 389,-179 389,-179 389,-179 1949.123,-179 1949.123,-179"/>
<polygon fill="#000000" stroke="#000000" points="1949.123,-182.5001 1959.123,-179 1949.123,-175.5001 1949.123,-182.5001"/>
</g>
<!-- TokenInterceptor -->
<g id="node27" class="node">
<title>TokenInterceptor</title>
<ellipse fill="#fdb462" stroke="#000000" cx="236" cy="-104" rx="78.1308" ry="18"/>
<text text-anchor="middle" x="236" y="-99.8" font-family="Times,serif" font-size="14.00" fill="#000000">TokenInterceptor</text>
</g>
<!-- TokenInterceptor&#45;&gt;AppModule -->
<g id="edge26" class="edge">
<title>TokenInterceptor&#45;&gt;AppModule</title>
<path fill="none" stroke="#000000" d="M236,-122.0908C236,-145.1328 236,-182 236,-182 236,-182 1949.1114,-182 1949.1114,-182"/>
<polygon fill="#000000" stroke="#000000" points="1949.1114,-185.5001 1959.1114,-182 1949.1114,-178.5001 1949.1114,-185.5001"/>
</g>
<!-- UserService -->
<g id="node28" class="node">
<title>UserService</title>
<ellipse fill="#fdb462" stroke="#000000" cx="82" cy="-104" rx="58.4415" ry="18"/>
<text text-anchor="middle" x="82" y="-99.8" font-family="Times,serif" font-size="14.00" fill="#000000">UserService</text>
</g>
<!-- UserService&#45;&gt;AppModule -->
<g id="edge27" class="edge">
<title>UserService&#45;&gt;AppModule</title>
<path fill="none" stroke="#000000" d="M82,-122.3802C82,-146.2785 82,-185 82,-185 82,-185 1949.1343,-185 1949.1343,-185"/>
<polygon fill="#000000" stroke="#000000" points="1949.1343,-188.5001 1959.1343,-185 1949.1343,-181.5001 1949.1343,-188.5001"/>
</g>
</g>
</svg>
