<?xml version="1.0" encoding="UTF-8" standalone="no"?>
<!DOCTYPE svg PUBLIC "-//W3C//DTD SVG 1.1//EN"
 "http://www.w3.org/Graphics/SVG/1.1/DTD/svg11.dtd">
<!-- Generated by graphviz version 2.40.1 (20161225.0304)
 -->
<!-- Title: dependencies Pages: 1 -->
<svg width="4010pt" height="284pt"
 viewBox="0.00 0.00 4010.00 284.00" xmlns="http://www.w3.org/2000/svg" xmlns:xlink="http://www.w3.org/1999/xlink">
<g id="graph0" class="graph" transform="scale(1 1) rotate(0) translate(4 280)">
<title>dependencies</title>
<polygon fill="#ffffff" stroke="transparent" points="-4,4 -4,-280 4006,-280 4006,4 -4,4"/>
<text text-anchor="start" x="1980.0091" y="-42.4" font-family="sans-serif" font-weight="bold" font-size="14.00" fill="#000000">Legend</text>
<polygon fill="#ffffb3" stroke="transparent" points="1767,-10 1767,-30 1787,-30 1787,-10 1767,-10"/>
<text text-anchor="start" x="1790.629" y="-15.4" font-family="sans-serif" font-size="14.00" fill="#000000"> &#160;Declarations</text>
<polygon fill="#8dd3c7" stroke="transparent" points="1880,-10 1880,-30 1900,-30 1900,-10 1880,-10"/>
<text text-anchor="start" x="1903.7251" y="-15.4" font-family="sans-serif" font-size="14.00" fill="#000000"> &#160;Module</text>
<polygon fill="#80b1d3" stroke="transparent" points="1966,-10 1966,-30 1986,-30 1986,-10 1966,-10"/>
<text text-anchor="start" x="1989.7812" y="-15.4" font-family="sans-serif" font-size="14.00" fill="#000000"> &#160;Bootstrap</text>
<polygon fill="#fdb462" stroke="transparent" points="2063,-10 2063,-30 2083,-30 2083,-10 2063,-10"/>
<text text-anchor="start" x="2086.6732" y="-15.4" font-family="sans-serif" font-size="14.00" fill="#000000"> &#160;Providers</text>
<polygon fill="#fb8072" stroke="transparent" points="2159,-10 2159,-30 2179,-30 2179,-10 2159,-10"/>
<text text-anchor="start" x="2182.7258" y="-15.4" font-family="sans-serif" font-size="14.00" fill="#000000"> &#160;Exports</text>
<g id="clust1" class="cluster">
<title>cluster_AppModule</title>
<polygon fill="none" stroke="#000000" stroke-dasharray="1,5" points="8,-70 8,-268 3994,-268 3994,-70 8,-70"/>
</g>
<g id="clust2" class="cluster">
<title>cluster_AppModule_declarations</title>
<polygon fill="none" stroke="#000000" points="780,-78 780,-130 3986,-130 3986,-78 780,-78"/>
</g>
<g id="clust26" class="cluster">
<title>cluster_AppModule_bootstrap</title>
<polygon fill="none" stroke="#000000" points="1968,-208 1968,-260 2092,-260 2092,-208 1968,-208"/>
</g>
<g id="clust27" class="cluster">
<title>cluster_AppModule_providers</title>
<polygon fill="none" stroke="#000000" points="16,-78 16,-130 772,-130 772,-78 16,-78"/>
</g>
<!-- AddUserComponent -->
<g id="node1" class="node">
<title>AddUserComponent</title>
<polygon fill="#ffffb3" stroke="#000000" points="3977.8655,-122 3846.1345,-122 3846.1345,-86 3977.8655,-86 3977.8655,-122"/>
<text text-anchor="middle" x="3912" y="-99.8" font-family="Times,serif" font-size="14.00" fill="#000000">AddUserComponent</text>
</g>
<!-- AppModule -->
<g id="node22" class="node">
<title>AppModule</title>
<polygon fill="#8dd3c7" stroke="#000000" points="2071.6571,-187 2068.6571,-191 2047.6571,-191 2044.6571,-187 1988.3429,-187 1988.3429,-151 2071.6571,-151 2071.6571,-187"/>
<text text-anchor="middle" x="2030" y="-164.8" font-family="Times,serif" font-size="14.00" fill="#000000">AppModule</text>
</g>
<!-- AddUserComponent&#45;&gt;AppModule -->
<g id="edge1" class="edge">
<title>AddUserComponent&#45;&gt;AppModule</title>
<path fill="none" stroke="#000000" d="M3912,-122.3802C3912,-146.2785 3912,-185 3912,-185 3912,-185 2081.9469,-185 2081.9469,-185"/>
<polygon fill="#000000" stroke="#000000" points="2081.947,-181.5001 2071.9469,-185 2081.9469,-188.5001 2081.947,-181.5001"/>
</g>
<!-- AppComponent -->
<g id="node2" class="node">
<title>AppComponent</title>
<polygon fill="#ffffb3" stroke="#000000" points="3827.9399,-122 3722.0601,-122 3722.0601,-86 3827.9399,-86 3827.9399,-122"/>
<text text-anchor="middle" x="3775" y="-99.8" font-family="Times,serif" font-size="14.00" fill="#000000">AppComponent</text>
</g>
<!-- AppComponent&#45;&gt;AppModule -->
<g id="edge2" class="edge">
<title>AppComponent&#45;&gt;AppModule</title>
<path fill="none" stroke="#000000" d="M3775,-122.0908C3775,-145.1328 3775,-182 3775,-182 3775,-182 2081.8412,-182 2081.8412,-182"/>
<polygon fill="#000000" stroke="#000000" points="2081.8412,-178.5001 2071.8412,-182 2081.8411,-185.5001 2081.8412,-178.5001"/>
</g>
<!-- CalendarComponent -->
<g id="node3" class="node">
<title>CalendarComponent</title>
<polygon fill="#ffffb3" stroke="#000000" points="3703.8641,-122 3572.1359,-122 3572.1359,-86 3703.8641,-86 3703.8641,-122"/>
<text text-anchor="middle" x="3638" y="-99.8" font-family="Times,serif" font-size="14.00" fill="#000000">CalendarComponent</text>
</g>
<!-- CalendarComponent&#45;&gt;AppModule -->
<g id="edge3" class="edge">
<title>CalendarComponent&#45;&gt;AppModule</title>
<path fill="none" stroke="#000000" d="M3638,-122.1554C3638,-144.3519 3638,-179 3638,-179 3638,-179 2081.7731,-179 2081.7731,-179"/>
<polygon fill="#000000" stroke="#000000" points="2081.7731,-175.5001 2071.7731,-179 2081.773,-182.5001 2081.7731,-175.5001"/>
</g>
<!-- CalendarDetailComponent -->
<g id="node4" class="node">
<title>CalendarDetailComponent</title>
<polygon fill="#ffffb3" stroke="#000000" points="3554.0716,-122 3387.9284,-122 3387.9284,-86 3554.0716,-86 3554.0716,-122"/>
<text text-anchor="middle" x="3471" y="-99.8" font-family="Times,serif" font-size="14.00" fill="#000000">CalendarDetailComponent</text>
</g>
<!-- CalendarDetailComponent&#45;&gt;AppModule -->
<g id="edge4" class="edge">
<title>CalendarDetailComponent&#45;&gt;AppModule</title>
<path fill="none" stroke="#000000" d="M3471,-122.1686C3471,-143.498 3471,-176 3471,-176 3471,-176 2081.9583,-176 2081.9583,-176"/>
<polygon fill="#000000" stroke="#000000" points="2081.9584,-172.5001 2071.9583,-176 2081.9583,-179.5001 2081.9584,-172.5001"/>
</g>
<!-- DashboardComponent -->
<g id="node5" class="node">
<title>DashboardComponent</title>
<polygon fill="#ffffb3" stroke="#000000" points="3369.9734,-122 3228.0266,-122 3228.0266,-86 3369.9734,-86 3369.9734,-122"/>
<text text-anchor="middle" x="3299" y="-99.8" font-family="Times,serif" font-size="14.00" fill="#000000">DashboardComponent</text>
</g>
<!-- DashboardComponent&#45;&gt;AppModule -->
<g id="edge5" class="edge">
<title>DashboardComponent&#45;&gt;AppModule</title>
<path fill="none" stroke="#000000" d="M3299,-122.0267C3299,-142.7672 3299,-174 3299,-174 3299,-174 2081.8605,-174 2081.8605,-174"/>
<polygon fill="#000000" stroke="#000000" points="2081.8605,-170.5001 2071.8605,-174 2081.8604,-177.5001 2081.8605,-170.5001"/>
</g>
<!-- DateTimePickerComponent -->
<g id="node6" class="node">
<title>DateTimePickerComponent</title>
<polygon fill="#ffffb3" stroke="#000000" points="3209.5702,-122 3036.4298,-122 3036.4298,-86 3209.5702,-86 3209.5702,-122"/>
<text text-anchor="middle" x="3123" y="-99.8" font-family="Times,serif" font-size="14.00" fill="#000000">DateTimePickerComponent</text>
</g>
<!-- DateTimePickerComponent&#45;&gt;AppModule -->
<g id="edge6" class="edge">
<title>DateTimePickerComponent&#45;&gt;AppModule</title>
<path fill="none" stroke="#000000" d="M3123,-122.308C3123,-142.1455 3123,-171 3123,-171 3123,-171 2081.8441,-171 2081.8441,-171"/>
<polygon fill="#000000" stroke="#000000" points="2081.8441,-167.5001 2071.8441,-171 2081.8441,-174.5001 2081.8441,-167.5001"/>
</g>
<!-- DiagramsComponent -->
<g id="node7" class="node">
<title>DiagramsComponent</title>
<polygon fill="#ffffb3" stroke="#000000" points="3018.7548,-122 2883.2452,-122 2883.2452,-86 3018.7548,-86 3018.7548,-122"/>
<text text-anchor="middle" x="2951" y="-99.8" font-family="Times,serif" font-size="14.00" fill="#000000">DiagramsComponent</text>
</g>
<!-- DiagramsComponent&#45;&gt;AppModule -->
<g id="edge7" class="edge">
<title>DiagramsComponent&#45;&gt;AppModule</title>
<path fill="none" stroke="#000000" d="M2951,-122.1686C2951,-141.0898 2951,-168 2951,-168 2951,-168 2081.6642,-168 2081.6642,-168"/>
<polygon fill="#000000" stroke="#000000" points="2081.6642,-164.5001 2071.6642,-168 2081.6642,-171.5001 2081.6642,-164.5001"/>
</g>
<!-- FilterPipe -->
<g id="node8" class="node">
<title>FilterPipe</title>
<polygon fill="#ffffb3" stroke="#000000" points="2865.7177,-122 2794.2823,-122 2794.2823,-86 2865.7177,-86 2865.7177,-122"/>
<text text-anchor="middle" x="2830" y="-99.8" font-family="Times,serif" font-size="14.00" fill="#000000">FilterPipe</text>
</g>
<!-- FilterPipe&#45;&gt;AppModule -->
<g id="edge8" class="edge">
<title>FilterPipe&#45;&gt;AppModule</title>
<path fill="none" stroke="#000000" d="M2830,-122.302C2830,-140.2699 2830,-165 2830,-165 2830,-165 2081.8851,-165 2081.8851,-165"/>
<polygon fill="#000000" stroke="#000000" points="2081.8851,-161.5001 2071.8851,-165 2081.8851,-168.5001 2081.8851,-161.5001"/>
</g>
<!-- FooterComponent -->
<g id="node9" class="node">
<title>FooterComponent</title>
<polygon fill="#ffffb3" stroke="#000000" points="2775.8809,-122 2658.1191,-122 2658.1191,-86 2775.8809,-86 2775.8809,-122"/>
<text text-anchor="middle" x="2717" y="-99.8" font-family="Times,serif" font-size="14.00" fill="#000000">FooterComponent</text>
</g>
<!-- FooterComponent&#45;&gt;AppModule -->
<g id="edge9" class="edge">
<title>FooterComponent&#45;&gt;AppModule</title>
<path fill="none" stroke="#000000" d="M2717,-122.0225C2717,-139.3734 2717,-163 2717,-163 2717,-163 2081.6839,-163 2081.6839,-163"/>
<polygon fill="#000000" stroke="#000000" points="2081.684,-159.5001 2071.6839,-163 2081.6839,-166.5001 2081.684,-159.5001"/>
</g>
<!-- HomeComponent -->
<g id="node10" class="node">
<title>HomeComponent</title>
<polygon fill="#ffffb3" stroke="#000000" points="2639.5451,-122 2524.4549,-122 2524.4549,-86 2639.5451,-86 2639.5451,-122"/>
<text text-anchor="middle" x="2582" y="-99.8" font-family="Times,serif" font-size="14.00" fill="#000000">HomeComponent</text>
</g>
<!-- HomeComponent&#45;&gt;AppModule -->
<g id="edge10" class="edge">
<title>HomeComponent&#45;&gt;AppModule</title>
<path fill="none" stroke="#000000" d="M2582,-122.027C2582,-138.3976 2582,-160 2582,-160 2582,-160 2081.9428,-160 2081.9428,-160"/>
<polygon fill="#000000" stroke="#000000" points="2081.9428,-156.5001 2071.9428,-160 2081.9428,-163.5001 2081.9428,-156.5001"/>
</g>
<!-- InformationComponent -->
<g id="node11" class="node">
<title>InformationComponent</title>
<polygon fill="#ffffb3" stroke="#000000" points="2506.2007,-122 2357.7993,-122 2357.7993,-86 2506.2007,-86 2506.2007,-122"/>
<text text-anchor="middle" x="2432" y="-99.8" font-family="Times,serif" font-size="14.00" fill="#000000">InformationComponent</text>
</g>
<!-- InformationComponent&#45;&gt;AppModule -->
<g id="edge11" class="edge">
<title>InformationComponent&#45;&gt;AppModule</title>
<path fill="none" stroke="#000000" d="M2432,-122.2396C2432,-137.5706 2432,-157 2432,-157 2432,-157 2081.8834,-157 2081.8834,-157"/>
<polygon fill="#000000" stroke="#000000" points="2081.8834,-153.5001 2071.8834,-157 2081.8834,-160.5001 2081.8834,-153.5001"/>
</g>
<!-- LoginFormComponent -->
<g id="node12" class="node">
<title>LoginFormComponent</title>
<polygon fill="#ffffb3" stroke="#000000" points="2339.6094,-122 2194.3906,-122 2194.3906,-86 2339.6094,-86 2339.6094,-122"/>
<text text-anchor="middle" x="2267" y="-99.8" font-family="Times,serif" font-size="14.00" fill="#000000">LoginFormComponent</text>
</g>
<!-- LoginFormComponent&#45;&gt;AppModule -->
<g id="edge12" class="edge">
<title>LoginFormComponent&#45;&gt;AppModule</title>
<path fill="none" stroke="#000000" d="M2267,-122.0511C2267,-136.373 2267,-154 2267,-154 2267,-154 2081.8253,-154 2081.8253,-154"/>
<polygon fill="#000000" stroke="#000000" points="2081.8253,-150.5001 2071.8253,-154 2081.8253,-157.5001 2081.8253,-150.5001"/>
</g>
<!-- ManageUserComponent -->
<g id="node13" class="node">
<title>ManageUserComponent</title>
<polygon fill="#ffffb3" stroke="#000000" points="2176.3473,-122 2023.6527,-122 2023.6527,-86 2176.3473,-86 2176.3473,-122"/>
<text text-anchor="middle" x="2100" y="-99.8" font-family="Times,serif" font-size="14.00" fill="#000000">ManageUserComponent</text>
</g>
<!-- ManageUserComponent&#45;&gt;AppModule -->
<g id="edge13" class="edge">
<title>ManageUserComponent&#45;&gt;AppModule</title>
<path fill="none" stroke="#000000" d="M2047.7023,-122.1061C2047.7023,-122.1061 2047.7023,-140.991 2047.7023,-140.991"/>
<polygon fill="#000000" stroke="#000000" points="2044.2024,-140.9909 2047.7023,-150.991 2051.2024,-140.991 2044.2024,-140.9909"/>
</g>
<!-- OrderByPipe -->
<g id="node14" class="node">
<title>OrderByPipe</title>
<polygon fill="#ffffb3" stroke="#000000" points="2005.8669,-122 1916.1331,-122 1916.1331,-86 2005.8669,-86 2005.8669,-122"/>
<text text-anchor="middle" x="1961" y="-99.8" font-family="Times,serif" font-size="14.00" fill="#000000">OrderByPipe</text>
</g>
<!-- OrderByPipe&#45;&gt;AppModule -->
<g id="edge14" class="edge">
<title>OrderByPipe&#45;&gt;AppModule</title>
<path fill="none" stroke="#000000" d="M1997.0526,-122.1061C1997.0526,-122.1061 1997.0526,-140.991 1997.0526,-140.991"/>
<polygon fill="#000000" stroke="#000000" points="1993.5527,-140.9909 1997.0526,-150.991 2000.5527,-140.991 1993.5527,-140.9909"/>
</g>
<!-- PasswordComponent -->
<g id="node15" class="node">
<title>PasswordComponent</title>
<polygon fill="#ffffb3" stroke="#000000" points="1898.486,-122 1763.514,-122 1763.514,-86 1898.486,-86 1898.486,-122"/>
<text text-anchor="middle" x="1831" y="-99.8" font-family="Times,serif" font-size="14.00" fill="#000000">PasswordComponent</text>
</g>
<!-- PasswordComponent&#45;&gt;AppModule -->
<g id="edge15" class="edge">
<title>PasswordComponent&#45;&gt;AppModule</title>
<path fill="none" stroke="#000000" d="M1831,-122.0511C1831,-136.373 1831,-154 1831,-154 1831,-154 1978.2831,-154 1978.2831,-154"/>
<polygon fill="#000000" stroke="#000000" points="1978.2831,-157.5001 1988.2831,-154 1978.283,-150.5001 1978.2831,-157.5001"/>
</g>
<!-- PlanningComponent -->
<g id="node16" class="node">
<title>PlanningComponent</title>
<polygon fill="#ffffb3" stroke="#000000" points="1745.6108,-122 1614.3892,-122 1614.3892,-86 1745.6108,-86 1745.6108,-122"/>
<text text-anchor="middle" x="1680" y="-99.8" font-family="Times,serif" font-size="14.00" fill="#000000">PlanningComponent</text>
</g>
<!-- PlanningComponent&#45;&gt;AppModule -->
<g id="edge16" class="edge">
<title>PlanningComponent&#45;&gt;AppModule</title>
<path fill="none" stroke="#000000" d="M1680,-122.2396C1680,-137.5706 1680,-157 1680,-157 1680,-157 1978.1295,-157 1978.1295,-157"/>
<polygon fill="#000000" stroke="#000000" points="1978.1295,-160.5001 1988.1295,-157 1978.1294,-153.5001 1978.1295,-160.5001"/>
</g>
<!-- ProtocolComponent -->
<g id="node17" class="node">
<title>ProtocolComponent</title>
<polygon fill="#ffffb3" stroke="#000000" points="1596.2716,-122 1467.7284,-122 1467.7284,-86 1596.2716,-86 1596.2716,-122"/>
<text text-anchor="middle" x="1532" y="-99.8" font-family="Times,serif" font-size="14.00" fill="#000000">ProtocolComponent</text>
</g>
<!-- ProtocolComponent&#45;&gt;AppModule -->
<g id="edge17" class="edge">
<title>ProtocolComponent&#45;&gt;AppModule</title>
<path fill="none" stroke="#000000" d="M1532,-122.027C1532,-138.3976 1532,-160 1532,-160 1532,-160 1977.97,-160 1977.97,-160"/>
<polygon fill="#000000" stroke="#000000" points="1977.97,-163.5001 1987.97,-160 1977.97,-156.5001 1977.97,-163.5001"/>
</g>
<!-- ProtocolDetailComponent -->
<g id="node18" class="node">
<title>ProtocolDetailComponent</title>
<polygon fill="#ffffb3" stroke="#000000" points="1449.479,-122 1286.521,-122 1286.521,-86 1449.479,-86 1449.479,-122"/>
<text text-anchor="middle" x="1368" y="-99.8" font-family="Times,serif" font-size="14.00" fill="#000000">ProtocolDetailComponent</text>
</g>
<!-- ProtocolDetailComponent&#45;&gt;AppModule -->
<g id="edge18" class="edge">
<title>ProtocolDetailComponent&#45;&gt;AppModule</title>
<path fill="none" stroke="#000000" d="M1368,-122.0225C1368,-139.3734 1368,-163 1368,-163 1368,-163 1978.3382,-163 1978.3382,-163"/>
<polygon fill="#000000" stroke="#000000" points="1978.3382,-166.5001 1988.3382,-163 1978.3381,-159.5001 1978.3382,-166.5001"/>
</g>
<!-- ShowplanningComponent -->
<g id="node19" class="node">
<title>ShowplanningComponent</title>
<polygon fill="#ffffb3" stroke="#000000" points="1268.2175,-122 1105.7825,-122 1105.7825,-86 1268.2175,-86 1268.2175,-122"/>
<text text-anchor="middle" x="1187" y="-99.8" font-family="Times,serif" font-size="14.00" fill="#000000">ShowplanningComponent</text>
</g>
<!-- ShowplanningComponent&#45;&gt;AppModule -->
<g id="edge19" class="edge">
<title>ShowplanningComponent&#45;&gt;AppModule</title>
<path fill="none" stroke="#000000" d="M1187,-122.302C1187,-140.2699 1187,-165 1187,-165 1187,-165 1978.1955,-165 1978.1955,-165"/>
<polygon fill="#000000" stroke="#000000" points="1978.1955,-168.5001 1988.1955,-165 1978.1955,-161.5001 1978.1955,-168.5001"/>
</g>
<!-- ShowprotocolComponent -->
<g id="node20" class="node">
<title>ShowprotocolComponent</title>
<polygon fill="#ffffb3" stroke="#000000" points="1087.878,-122 928.122,-122 928.122,-86 1087.878,-86 1087.878,-122"/>
<text text-anchor="middle" x="1008" y="-99.8" font-family="Times,serif" font-size="14.00" fill="#000000">ShowprotocolComponent</text>
</g>
<!-- ShowprotocolComponent&#45;&gt;AppModule -->
<g id="edge20" class="edge">
<title>ShowprotocolComponent&#45;&gt;AppModule</title>
<path fill="none" stroke="#000000" d="M1008,-122.1686C1008,-141.0898 1008,-168 1008,-168 1008,-168 1978.0311,-168 1978.0311,-168"/>
<polygon fill="#000000" stroke="#000000" points="1978.0311,-171.5001 1988.0311,-168 1978.031,-164.5001 1978.0311,-171.5001"/>
</g>
<!-- TerminComponent -->
<g id="node21" class="node">
<title>TerminComponent</title>
<polygon fill="#ffffb3" stroke="#000000" points="910.0423,-122 787.9577,-122 787.9577,-86 910.0423,-86 910.0423,-122"/>
<text text-anchor="middle" x="849" y="-99.8" font-family="Times,serif" font-size="14.00" fill="#000000">TerminComponent</text>
</g>
<!-- TerminComponent&#45;&gt;AppModule -->
<g id="edge21" class="edge">
<title>TerminComponent&#45;&gt;AppModule</title>
<path fill="none" stroke="#000000" d="M849,-122.308C849,-142.1455 849,-171 849,-171 849,-171 1978.3145,-171 1978.3145,-171"/>
<polygon fill="#000000" stroke="#000000" points="1978.3145,-174.5001 1988.3145,-171 1978.3144,-167.5001 1978.3145,-174.5001"/>
</g>
<!-- AppComponent  -->
<g id="node23" class="node">
<title>AppComponent </title>
<polygon fill="#80b1d3" stroke="#000000" points="2084.439,-252 1975.561,-252 1975.561,-216 2084.439,-216 2084.439,-252"/>
<text text-anchor="middle" x="2030" y="-229.8" font-family="Times,serif" font-size="14.00" fill="#000000">AppComponent </text>
</g>
<!-- AppModule&#45;&gt;AppComponent  -->
<g id="edge22" class="edge">
<title>AppModule&#45;&gt;AppComponent </title>
<path fill="none" stroke="#000000" stroke-dasharray="1,5" d="M2030,-187.1061C2030,-187.1061 2030,-205.991 2030,-205.991"/>
<polygon fill="#000000" stroke="#000000" points="2026.5001,-205.9909 2030,-215.991 2033.5001,-205.991 2026.5001,-205.9909"/>
</g>
<!-- AuthService -->
<g id="node24" class="node">
<title>AuthService</title>
<ellipse fill="#fdb462" stroke="#000000" cx="705" cy="-104" rx="59.1083" ry="18"/>
<text text-anchor="middle" x="705" y="-99.8" font-family="Times,serif" font-size="14.00" fill="#000000">AuthService</text>
</g>
<!-- AuthService&#45;&gt;AppModule -->
<g id="edge23" class="edge">
<title>AuthService&#45;&gt;AppModule</title>
<path fill="none" stroke="#000000" d="M705,-122.0267C705,-142.7672 705,-174 705,-174 705,-174 1978.157,-174 1978.157,-174"/>
<polygon fill="#000000" stroke="#000000" points="1978.157,-177.5001 1988.157,-174 1978.1569,-170.5001 1978.157,-177.5001"/>
</g>
<!-- MessagingService -->
<g id="node25" class="node">
<title>MessagingService</title>
<ellipse fill="#fdb462" stroke="#000000" cx="546" cy="-104" rx="81.6596" ry="18"/>
<text text-anchor="middle" x="546" y="-99.8" font-family="Times,serif" font-size="14.00" fill="#000000">MessagingService</text>
</g>
<!-- MessagingService&#45;&gt;AppModule -->
<g id="edge24" class="edge">
<title>MessagingService&#45;&gt;AppModule</title>
<path fill="none" stroke="#000000" d="M546,-122.1686C546,-143.498 546,-176 546,-176 546,-176 1977.9772,-176 1977.9772,-176"/>
<polygon fill="#000000" stroke="#000000" points="1977.9773,-179.5001 1987.9772,-176 1977.9772,-172.5001 1977.9773,-179.5001"/>
</g>
<!-- RestService -->
<g id="node26" class="node">
<title>RestService</title>
<ellipse fill="#fdb462" stroke="#000000" cx="389" cy="-104" rx="57.3166" ry="18"/>
<text text-anchor="middle" x="389" y="-99.8" font-family="Times,serif" font-size="14.00" fill="#000000">RestService</text>
</g>
<!-- RestService&#45;&gt;AppModule -->
<g id="edge25" class="edge">
<title>RestService&#45;&gt;AppModule</title>
<path fill="none" stroke="#000000" d="M389,-122.1554C389,-144.3519 389,-179 389,-179 389,-179 1978.2018,-179 1978.2018,-179"/>
<polygon fill="#000000" stroke="#000000" points="1978.2018,-182.5001 1988.2018,-179 1978.2017,-175.5001 1978.2018,-182.5001"/>
</g>
<!-- TokenInterceptor -->
<g id="node27" class="node">
<title>TokenInterceptor</title>
<ellipse fill="#fdb462" stroke="#000000" cx="236" cy="-104" rx="78.1308" ry="18"/>
<text text-anchor="middle" x="236" y="-99.8" font-family="Times,serif" font-size="14.00" fill="#000000">TokenInterceptor</text>
</g>
<!-- TokenInterceptor&#45;&gt;AppModule -->
<g id="edge26" class="edge">
<title>TokenInterceptor&#45;&gt;AppModule</title>
<path fill="none" stroke="#000000" d="M236,-122.0908C236,-145.1328 236,-182 236,-182 236,-182 1978.2953,-182 1978.2953,-182"/>
<polygon fill="#000000" stroke="#000000" points="1978.2954,-185.5001 1988.2953,-182 1978.2953,-178.5001 1978.2954,-185.5001"/>
</g>
<!-- UserService -->
<g id="node28" class="node">
<title>UserService</title>
<ellipse fill="#fdb462" stroke="#000000" cx="82" cy="-104" rx="58.4415" ry="18"/>
<text text-anchor="middle" x="82" y="-99.8" font-family="Times,serif" font-size="14.00" fill="#000000">UserService</text>
</g>
<!-- UserService&#45;&gt;AppModule -->
<g id="edge27" class="edge">
<title>UserService&#45;&gt;AppModule</title>
<path fill="none" stroke="#000000" d="M82,-122.3802C82,-146.2785 82,-185 82,-185 82,-185 1977.958,-185 1977.958,-185"/>
<polygon fill="#000000" stroke="#000000" points="1977.958,-188.5001 1987.958,-185 1977.9579,-181.5001 1977.958,-188.5001"/>
</g>
</g>
</svg>
