<?xml version="1.0" encoding="UTF-8" standalone="no"?>
<!DOCTYPE svg PUBLIC "-//W3C//DTD SVG 1.1//EN"
 "http://www.w3.org/Graphics/SVG/1.1/DTD/svg11.dtd">
<!-- Generated by graphviz version 2.40.1 (20161225.0304)
 -->
<!-- Title: dependencies Pages: 1 -->
<svg width="4216pt" height="287pt"
 viewBox="0.00 0.00 4216.00 287.00" xmlns="http://www.w3.org/2000/svg" xmlns:xlink="http://www.w3.org/1999/xlink">
<g id="graph0" class="graph" transform="scale(1 1) rotate(0) translate(4 283)">
<title>dependencies</title>
<polygon fill="#ffffff" stroke="transparent" points="-4,4 -4,-283 4212,-283 4212,4 -4,4"/>
<text text-anchor="start" x="2083.0091" y="-42.4" font-family="sans-serif" font-weight="bold" font-size="14.00" fill="#000000">Legend</text>
<polygon fill="#ffffb3" stroke="transparent" points="1870,-10 1870,-30 1890,-30 1890,-10 1870,-10"/>
<text text-anchor="start" x="1893.629" y="-15.4" font-family="sans-serif" font-size="14.00" fill="#000000"> &#160;Declarations</text>
<polygon fill="#8dd3c7" stroke="transparent" points="1983,-10 1983,-30 2003,-30 2003,-10 1983,-10"/>
<text text-anchor="start" x="2006.7251" y="-15.4" font-family="sans-serif" font-size="14.00" fill="#000000"> &#160;Module</text>
<polygon fill="#80b1d3" stroke="transparent" points="2069,-10 2069,-30 2089,-30 2089,-10 2069,-10"/>
<text text-anchor="start" x="2092.7812" y="-15.4" font-family="sans-serif" font-size="14.00" fill="#000000"> &#160;Bootstrap</text>
<polygon fill="#fdb462" stroke="transparent" points="2166,-10 2166,-30 2186,-30 2186,-10 2166,-10"/>
<text text-anchor="start" x="2189.6732" y="-15.4" font-family="sans-serif" font-size="14.00" fill="#000000"> &#160;Providers</text>
<polygon fill="#fb8072" stroke="transparent" points="2262,-10 2262,-30 2282,-30 2282,-10 2262,-10"/>
<text text-anchor="start" x="2285.7258" y="-15.4" font-family="sans-serif" font-size="14.00" fill="#000000"> &#160;Exports</text>
<g id="clust1" class="cluster">
<title>cluster_AppModule</title>
<polygon fill="none" stroke="#000000" stroke-dasharray="1,5" points="8,-70 8,-271 3984,-271 3984,-70 8,-70"/>
</g>
<g id="clust2" class="cluster">
<title>cluster_AppModule_declarations</title>
<polygon fill="none" stroke="#000000" points="780,-78 780,-195 3976,-195 3976,-78 780,-78"/>
</g>
<g id="clust27" class="cluster">
<title>cluster_AppModule_bootstrap</title>
<polygon fill="none" stroke="#000000" points="668,-211 668,-263 792,-263 792,-211 668,-211"/>
</g>
<g id="clust28" class="cluster">
<title>cluster_AppModule_providers</title>
<polygon fill="none" stroke="#000000" points="16,-78 16,-130 772,-130 772,-78 16,-78"/>
</g>
<g id="clust29" class="cluster">
<title>cluster_CalendarComponent</title>
<polygon fill="none" stroke="#000000" stroke-dasharray="1,5" points="3992,-203 3992,-271 4200,-271 4200,-203 3992,-203"/>
</g>
<g id="clust33" class="cluster">
<title>cluster_CalendarComponent_exports</title>
<polygon fill="none" stroke="#000000" points="4000,-211 4000,-263 4192,-263 4192,-211 4000,-211"/>
</g>
<!-- AddUserComponent -->
<g id="node1" class="node">
<title>AddUserComponent</title>
<polygon fill="#ffffb3" stroke="#000000" points="3776.8655,-122 3645.1345,-122 3645.1345,-86 3776.8655,-86 3776.8655,-122"/>
<text text-anchor="middle" x="3711" y="-99.8" font-family="Times,serif" font-size="14.00" fill="#000000">AddUserComponent</text>
</g>
<!-- AppModule -->
<g id="node23" class="node">
<title>AppModule</title>
<polygon fill="#8dd3c7" stroke="#000000" points="771.6571,-187 768.6571,-191 747.6571,-191 744.6571,-187 688.3429,-187 688.3429,-151 771.6571,-151 771.6571,-187"/>
<text text-anchor="middle" x="730" y="-164.8" font-family="Times,serif" font-size="14.00" fill="#000000">AppModule</text>
</g>
<!-- AddUserComponent&#45;&gt;AppModule -->
<g id="edge1" class="edge">
<title>AddUserComponent&#45;&gt;AppModule</title>
<path fill="none" stroke="#000000" d="M3711,-122.3228C3711,-145.6602 3711,-183 3711,-183 3711,-183 781.8554,-183 781.8554,-183"/>
<polygon fill="#000000" stroke="#000000" points="781.8554,-179.5001 771.8554,-183 781.8553,-186.5001 781.8554,-179.5001"/>
</g>
<!-- AppComponent -->
<g id="node2" class="node">
<title>AppComponent</title>
<polygon fill="#ffffb3" stroke="#000000" points="3626.9399,-122 3521.0601,-122 3521.0601,-86 3626.9399,-86 3626.9399,-122"/>
<text text-anchor="middle" x="3574" y="-99.8" font-family="Times,serif" font-size="14.00" fill="#000000">AppComponent</text>
</g>
<!-- AppComponent&#45;&gt;AppModule -->
<g id="edge2" class="edge">
<title>AppComponent&#45;&gt;AppModule</title>
<path fill="none" stroke="#000000" d="M3574,-122.2479C3574,-145.0179 3574,-181 3574,-181 3574,-181 781.8534,-181 781.8534,-181"/>
<polygon fill="#000000" stroke="#000000" points="781.8534,-177.5001 771.8534,-181 781.8533,-184.5001 781.8534,-177.5001"/>
</g>
<!-- CalendarComponent -->
<g id="node3" class="node">
<title>CalendarComponent</title>
<polygon fill="#ffffb3" stroke="#000000" points="3946.8641,-187 3815.1359,-187 3815.1359,-151 3946.8641,-151 3946.8641,-187"/>
<text text-anchor="middle" x="3881" y="-164.8" font-family="Times,serif" font-size="14.00" fill="#000000">CalendarComponent</text>
</g>
<!-- CalendarComponent&#45;&gt;AppModule -->
<g id="edge3" class="edge">
<title>CalendarComponent&#45;&gt;AppModule</title>
<path fill="none" stroke="#000000" d="M3814.8238,-186C3814.8238,-186 781.7837,-186 781.7837,-186"/>
<polygon fill="#000000" stroke="#000000" points="781.7838,-182.5001 771.7837,-186 781.7837,-189.5001 781.7838,-182.5001"/>
</g>
<!-- DateTimePickerComponent  -->
<g id="node30" class="node">
<title>DateTimePickerComponent </title>
<polygon fill="#fb8072" stroke="#000000" points="4184.0707,-255 4007.9293,-255 4007.9293,-219 4184.0707,-219 4184.0707,-255"/>
<text text-anchor="middle" x="4096" y="-232.8" font-family="Times,serif" font-size="14.00" fill="#000000">DateTimePickerComponent </text>
</g>
<!-- CalendarComponent&#45;&gt;DateTimePickerComponent  -->
<g id="edge30" class="edge">
<title>CalendarComponent&#45;&gt;DateTimePickerComponent </title>
<path fill="none" stroke="#000000" stroke-dasharray="5,2" d="M3881,-187.2228C3881,-207.3652 3881,-237 3881,-237 3881,-237 3997.6205,-237 3997.6205,-237"/>
<polygon fill="#000000" stroke="#000000" points="3997.6206,-240.5001 4007.6205,-237 3997.6205,-233.5001 3997.6206,-240.5001"/>
</g>
<!-- CalendarDetailComponent -->
<g id="node4" class="node">
<title>CalendarDetailComponent</title>
<polygon fill="#ffffb3" stroke="#000000" points="3503.0716,-122 3336.9284,-122 3336.9284,-86 3503.0716,-86 3503.0716,-122"/>
<text text-anchor="middle" x="3420" y="-99.8" font-family="Times,serif" font-size="14.00" fill="#000000">CalendarDetailComponent</text>
</g>
<!-- CalendarDetailComponent&#45;&gt;AppModule -->
<g id="edge4" class="edge">
<title>CalendarDetailComponent&#45;&gt;AppModule</title>
<path fill="none" stroke="#000000" d="M3420,-122.1554C3420,-144.3519 3420,-179 3420,-179 3420,-179 781.7136,-179 781.7136,-179"/>
<polygon fill="#000000" stroke="#000000" points="781.7137,-175.5001 771.7136,-179 781.7136,-182.5001 781.7137,-175.5001"/>
</g>
<!-- DashboardComponent -->
<g id="node5" class="node">
<title>DashboardComponent</title>
<polygon fill="#ffffb3" stroke="#000000" points="3318.9734,-122 3177.0266,-122 3177.0266,-86 3318.9734,-86 3318.9734,-122"/>
<text text-anchor="middle" x="3248" y="-99.8" font-family="Times,serif" font-size="14.00" fill="#000000">DashboardComponent</text>
</g>
<!-- DashboardComponent&#45;&gt;AppModule -->
<g id="edge5" class="edge">
<title>DashboardComponent&#45;&gt;AppModule</title>
<path fill="none" stroke="#000000" d="M3248,-122.2921C3248,-144.2057 3248,-178 3248,-178 3248,-178 781.8637,-178 781.8637,-178"/>
<polygon fill="#000000" stroke="#000000" points="781.8637,-174.5001 771.8637,-178 781.8637,-181.5001 781.8637,-174.5001"/>
</g>
<!-- DateTimePickerComponent -->
<g id="node6" class="node">
<title>DateTimePickerComponent</title>
<polygon fill="#ffffb3" stroke="#000000" points="3967.5702,-122 3794.4298,-122 3794.4298,-86 3967.5702,-86 3967.5702,-122"/>
<text text-anchor="middle" x="3881" y="-99.8" font-family="Times,serif" font-size="14.00" fill="#000000">DateTimePickerComponent</text>
</g>
<!-- DateTimePickerComponent&#45;&gt;CalendarComponent -->
<g id="edge29" class="edge">
<title>DateTimePickerComponent&#45;&gt;CalendarComponent</title>
<path fill="none" stroke="#000000" d="M3881,-122.1061C3881,-122.1061 3881,-140.991 3881,-140.991"/>
<polygon fill="#000000" stroke="#000000" points="3877.5001,-140.9909 3881,-150.991 3884.5001,-140.991 3877.5001,-140.9909"/>
</g>
<!-- DateTimePickerComponent&#45;&gt;AppModule -->
<g id="edge6" class="edge">
<title>DateTimePickerComponent&#45;&gt;AppModule</title>
<path fill="none" stroke="#000000" d="M3804.7665,-122.1532C3804.7665,-145.7566 3804.7665,-184 3804.7665,-184 3804.7665,-184 781.7164,-184 781.7164,-184"/>
<polygon fill="#000000" stroke="#000000" points="781.7164,-180.5001 771.7164,-184 781.7163,-187.5001 781.7164,-180.5001"/>
</g>
<!-- DiagramsComponent -->
<g id="node7" class="node">
<title>DiagramsComponent</title>
<polygon fill="#ffffb3" stroke="#000000" points="3158.7548,-122 3023.2452,-122 3023.2452,-86 3158.7548,-86 3158.7548,-122"/>
<text text-anchor="middle" x="3091" y="-99.8" font-family="Times,serif" font-size="14.00" fill="#000000">DiagramsComponent</text>
</g>
<!-- DiagramsComponent&#45;&gt;AppModule -->
<g id="edge7" class="edge">
<title>DiagramsComponent&#45;&gt;AppModule</title>
<path fill="none" stroke="#000000" d="M3091,-122.1686C3091,-143.498 3091,-176 3091,-176 3091,-176 781.73,-176 781.73,-176"/>
<polygon fill="#000000" stroke="#000000" points="781.7301,-172.5001 771.73,-176 781.73,-179.5001 781.7301,-172.5001"/>
</g>
<!-- FilterPipe -->
<g id="node8" class="node">
<title>FilterPipe</title>
<polygon fill="#ffffb3" stroke="#000000" points="3005.7177,-122 2934.2823,-122 2934.2823,-86 3005.7177,-86 3005.7177,-122"/>
<text text-anchor="middle" x="2970" y="-99.8" font-family="Times,serif" font-size="14.00" fill="#000000">FilterPipe</text>
</g>
<!-- FilterPipe&#45;&gt;AppModule -->
<g id="edge8" class="edge">
<title>FilterPipe&#45;&gt;AppModule</title>
<path fill="none" stroke="#000000" d="M2970,-122.0267C2970,-142.7672 2970,-174 2970,-174 2970,-174 781.7638,-174 781.7638,-174"/>
<polygon fill="#000000" stroke="#000000" points="781.7638,-170.5001 771.7638,-174 781.7638,-177.5001 781.7638,-170.5001"/>
</g>
<!-- FooterComponent -->
<g id="node9" class="node">
<title>FooterComponent</title>
<polygon fill="#ffffb3" stroke="#000000" points="2915.8809,-122 2798.1191,-122 2798.1191,-86 2915.8809,-86 2915.8809,-122"/>
<text text-anchor="middle" x="2857" y="-99.8" font-family="Times,serif" font-size="14.00" fill="#000000">FooterComponent</text>
</g>
<!-- FooterComponent&#45;&gt;AppModule -->
<g id="edge9" class="edge">
<title>FooterComponent&#45;&gt;AppModule</title>
<path fill="none" stroke="#000000" d="M2857,-122.1289C2857,-142.5724 2857,-173 2857,-173 2857,-173 782.0095,-173 782.0095,-173"/>
<polygon fill="#000000" stroke="#000000" points="782.0095,-169.5001 772.0095,-173 782.0095,-176.5001 782.0095,-169.5001"/>
</g>
<!-- HeaderComponent -->
<g id="node10" class="node">
<title>HeaderComponent</title>
<polygon fill="#ffffb3" stroke="#000000" points="2779.7437,-122 2658.2563,-122 2658.2563,-86 2779.7437,-86 2779.7437,-122"/>
<text text-anchor="middle" x="2719" y="-99.8" font-family="Times,serif" font-size="14.00" fill="#000000">HeaderComponent</text>
</g>
<!-- HeaderComponent&#45;&gt;AppModule -->
<g id="edge10" class="edge">
<title>HeaderComponent&#45;&gt;AppModule</title>
<path fill="none" stroke="#000000" d="M2719,-122.308C2719,-142.1455 2719,-171 2719,-171 2719,-171 782.002,-171 782.002,-171"/>
<polygon fill="#000000" stroke="#000000" points="782.002,-167.5001 772.002,-171 782.002,-174.5001 782.002,-167.5001"/>
</g>
<!-- HomeComponent -->
<g id="node11" class="node">
<title>HomeComponent</title>
<polygon fill="#ffffb3" stroke="#000000" points="2639.5451,-122 2524.4549,-122 2524.4549,-86 2639.5451,-86 2639.5451,-122"/>
<text text-anchor="middle" x="2582" y="-99.8" font-family="Times,serif" font-size="14.00" fill="#000000">HomeComponent</text>
</g>
<!-- HomeComponent&#45;&gt;AppModule -->
<g id="edge11" class="edge">
<title>HomeComponent&#45;&gt;AppModule</title>
<path fill="none" stroke="#000000" d="M2582,-122.1061C2582,-141.3391 2582,-169 2582,-169 2582,-169 781.7187,-169 781.7187,-169"/>
<polygon fill="#000000" stroke="#000000" points="781.7187,-165.5001 771.7187,-169 781.7187,-172.5001 781.7187,-165.5001"/>
</g>
<!-- InformationComponent -->
<g id="node12" class="node">
<title>InformationComponent</title>
<polygon fill="#ffffb3" stroke="#000000" points="2506.2007,-122 2357.7993,-122 2357.7993,-86 2506.2007,-86 2506.2007,-122"/>
<text text-anchor="middle" x="2432" y="-99.8" font-family="Times,serif" font-size="14.00" fill="#000000">InformationComponent</text>
</g>
<!-- InformationComponent&#45;&gt;AppModule -->
<g id="edge12" class="edge">
<title>InformationComponent&#45;&gt;AppModule</title>
<path fill="none" stroke="#000000" d="M2432,-122.1686C2432,-141.0898 2432,-168 2432,-168 2432,-168 782.0721,-168 782.0721,-168"/>
<polygon fill="#000000" stroke="#000000" points="782.0722,-164.5001 772.0721,-168 782.0721,-171.5001 782.0722,-164.5001"/>
</g>
<!-- LoginFormComponent -->
<g id="node13" class="node">
<title>LoginFormComponent</title>
<polygon fill="#ffffb3" stroke="#000000" points="2339.6094,-122 2194.3906,-122 2194.3906,-86 2339.6094,-86 2339.6094,-122"/>
<text text-anchor="middle" x="2267" y="-99.8" font-family="Times,serif" font-size="14.00" fill="#000000">LoginFormComponent</text>
</g>
<!-- LoginFormComponent&#45;&gt;AppModule -->
<g id="edge13" class="edge">
<title>LoginFormComponent&#45;&gt;AppModule</title>
<path fill="none" stroke="#000000" d="M2267,-122.2667C2267,-140.5552 2267,-166 2267,-166 2267,-166 781.9082,-166 781.9082,-166"/>
<polygon fill="#000000" stroke="#000000" points="781.9082,-162.5001 771.9082,-166 781.9081,-169.5001 781.9082,-162.5001"/>
</g>
<!-- ManageUserComponent -->
<g id="node14" class="node">
<title>ManageUserComponent</title>
<polygon fill="#ffffb3" stroke="#000000" points="2176.3473,-122 2023.6527,-122 2023.6527,-86 2176.3473,-86 2176.3473,-122"/>
<text text-anchor="middle" x="2100" y="-99.8" font-family="Times,serif" font-size="14.00" fill="#000000">ManageUserComponent</text>
</g>
<!-- ManageUserComponent&#45;&gt;AppModule -->
<g id="edge14" class="edge">
<title>ManageUserComponent&#45;&gt;AppModule</title>
<path fill="none" stroke="#000000" d="M2100,-122.302C2100,-140.2699 2100,-165 2100,-165 2100,-165 781.7494,-165 781.7494,-165"/>
<polygon fill="#000000" stroke="#000000" points="781.7495,-161.5001 771.7494,-165 781.7494,-168.5001 781.7495,-161.5001"/>
</g>
<!-- OrderByPipe -->
<g id="node15" class="node">
<title>OrderByPipe</title>
<polygon fill="#ffffb3" stroke="#000000" points="2005.8669,-122 1916.1331,-122 1916.1331,-86 2005.8669,-86 2005.8669,-122"/>
<text text-anchor="middle" x="1961" y="-99.8" font-family="Times,serif" font-size="14.00" fill="#000000">OrderByPipe</text>
</g>
<!-- OrderByPipe&#45;&gt;AppModule -->
<g id="edge15" class="edge">
<title>OrderByPipe&#45;&gt;AppModule</title>
<path fill="none" stroke="#000000" d="M1961,-122.0225C1961,-139.3734 1961,-163 1961,-163 1961,-163 781.6629,-163 781.6629,-163"/>
<polygon fill="#000000" stroke="#000000" points="781.663,-159.5001 771.6629,-163 781.6629,-166.5001 781.663,-159.5001"/>
</g>
<!-- PasswordComponent -->
<g id="node16" class="node">
<title>PasswordComponent</title>
<polygon fill="#ffffb3" stroke="#000000" points="1898.486,-122 1763.514,-122 1763.514,-86 1898.486,-86 1898.486,-122"/>
<text text-anchor="middle" x="1831" y="-99.8" font-family="Times,serif" font-size="14.00" fill="#000000">PasswordComponent</text>
</g>
<!-- PasswordComponent&#45;&gt;AppModule -->
<g id="edge16" class="edge">
<title>PasswordComponent&#45;&gt;AppModule</title>
<path fill="none" stroke="#000000" d="M1831,-122.0352C1831,-138.7344 1831,-161 1831,-161 1831,-161 781.8161,-161 781.8161,-161"/>
<polygon fill="#000000" stroke="#000000" points="781.8161,-157.5001 771.8161,-161 781.816,-164.5001 781.8161,-157.5001"/>
</g>
<!-- PlanningComponent -->
<g id="node17" class="node">
<title>PlanningComponent</title>
<polygon fill="#ffffb3" stroke="#000000" points="1745.6108,-122 1614.3892,-122 1614.3892,-86 1745.6108,-86 1745.6108,-122"/>
<text text-anchor="middle" x="1680" y="-99.8" font-family="Times,serif" font-size="14.00" fill="#000000">PlanningComponent</text>
</g>
<!-- PlanningComponent&#45;&gt;AppModule -->
<g id="edge17" class="edge">
<title>PlanningComponent&#45;&gt;AppModule</title>
<path fill="none" stroke="#000000" d="M1680,-122.027C1680,-138.3976 1680,-160 1680,-160 1680,-160 781.7381,-160 781.7381,-160"/>
<polygon fill="#000000" stroke="#000000" points="781.7382,-156.5001 771.7381,-160 781.7381,-163.5001 781.7382,-156.5001"/>
</g>
<!-- ProtocolComponent -->
<g id="node18" class="node">
<title>ProtocolComponent</title>
<polygon fill="#ffffb3" stroke="#000000" points="1596.2716,-122 1467.7284,-122 1467.7284,-86 1596.2716,-86 1596.2716,-122"/>
<text text-anchor="middle" x="1532" y="-99.8" font-family="Times,serif" font-size="14.00" fill="#000000">ProtocolComponent</text>
</g>
<!-- ProtocolComponent&#45;&gt;AppModule -->
<g id="edge18" class="edge">
<title>ProtocolComponent&#45;&gt;AppModule</title>
<path fill="none" stroke="#000000" d="M1532,-122.2819C1532,-137.9478 1532,-158 1532,-158 1532,-158 781.7096,-158 781.7096,-158"/>
<polygon fill="#000000" stroke="#000000" points="781.7096,-154.5001 771.7096,-158 781.7096,-161.5001 781.7096,-154.5001"/>
</g>
<!-- ProtocolDetailComponent -->
<g id="node19" class="node">
<title>ProtocolDetailComponent</title>
<polygon fill="#ffffb3" stroke="#000000" points="1449.479,-122 1286.521,-122 1286.521,-86 1449.479,-86 1449.479,-122"/>
<text text-anchor="middle" x="1368" y="-99.8" font-family="Times,serif" font-size="14.00" fill="#000000">ProtocolDetailComponent</text>
</g>
<!-- ProtocolDetailComponent&#45;&gt;AppModule -->
<g id="edge19" class="edge">
<title>ProtocolDetailComponent&#45;&gt;AppModule</title>
<path fill="none" stroke="#000000" d="M1368,-122.1871C1368,-137.1824 1368,-156 1368,-156 1368,-156 781.861,-156 781.861,-156"/>
<polygon fill="#000000" stroke="#000000" points="781.861,-152.5001 771.861,-156 781.8609,-159.5001 781.861,-152.5001"/>
</g>
<!-- ShowplanningComponent -->
<g id="node20" class="node">
<title>ShowplanningComponent</title>
<polygon fill="#ffffb3" stroke="#000000" points="1268.2175,-122 1105.7825,-122 1105.7825,-86 1268.2175,-86 1268.2175,-122"/>
<text text-anchor="middle" x="1187" y="-99.8" font-family="Times,serif" font-size="14.00" fill="#000000">ShowplanningComponent</text>
</g>
<!-- ShowplanningComponent&#45;&gt;AppModule -->
<g id="edge20" class="edge">
<title>ShowplanningComponent&#45;&gt;AppModule</title>
<path fill="none" stroke="#000000" d="M1187,-122.1243C1187,-136.7832 1187,-155 1187,-155 1187,-155 781.7672,-155 781.7672,-155"/>
<polygon fill="#000000" stroke="#000000" points="781.7672,-151.5001 771.7672,-155 781.7672,-158.5001 781.7672,-151.5001"/>
</g>
<!-- ShowprotocolComponent -->
<g id="node21" class="node">
<title>ShowprotocolComponent</title>
<polygon fill="#ffffb3" stroke="#000000" points="1087.878,-122 928.122,-122 928.122,-86 1087.878,-86 1087.878,-122"/>
<text text-anchor="middle" x="1008" y="-99.8" font-family="Times,serif" font-size="14.00" fill="#000000">ShowprotocolComponent</text>
</g>
<!-- ShowprotocolComponent&#45;&gt;AppModule -->
<g id="edge21" class="edge">
<title>ShowprotocolComponent&#45;&gt;AppModule</title>
<path fill="none" stroke="#000000" d="M1008,-122.2458C1008,-136.1772 1008,-153 1008,-153 1008,-153 781.9204,-153 781.9204,-153"/>
<polygon fill="#000000" stroke="#000000" points="781.9204,-149.5001 771.9204,-153 781.9204,-156.5001 781.9204,-149.5001"/>
</g>
<!-- TerminComponent -->
<g id="node22" class="node">
<title>TerminComponent</title>
<polygon fill="#ffffb3" stroke="#000000" points="910.0423,-122 787.9577,-122 787.9577,-86 910.0423,-86 910.0423,-122"/>
<text text-anchor="middle" x="849" y="-99.8" font-family="Times,serif" font-size="14.00" fill="#000000">TerminComponent</text>
</g>
<!-- TerminComponent&#45;&gt;AppModule -->
<g id="edge22" class="edge">
<title>TerminComponent&#45;&gt;AppModule</title>
<path fill="none" stroke="#000000" d="M787.6579,-104C776.3699,-104 768.066,-104 768.066,-104 768.066,-104 768.066,-140.8939 768.066,-140.8939"/>
<polygon fill="#000000" stroke="#000000" points="764.5661,-140.8938 768.066,-150.8939 771.5661,-140.8939 764.5661,-140.8938"/>
</g>
<!-- AppComponent  -->
<g id="node24" class="node">
<title>AppComponent </title>
<polygon fill="#80b1d3" stroke="#000000" points="784.439,-255 675.561,-255 675.561,-219 784.439,-219 784.439,-255"/>
<text text-anchor="middle" x="730" y="-232.8" font-family="Times,serif" font-size="14.00" fill="#000000">AppComponent </text>
</g>
<!-- AppModule&#45;&gt;AppComponent  -->
<g id="edge23" class="edge">
<title>AppModule&#45;&gt;AppComponent </title>
<path fill="none" stroke="#000000" stroke-dasharray="1,5" d="M730,-187.2228C730,-187.2228 730,-208.7269 730,-208.7269"/>
<polygon fill="#000000" stroke="#000000" points="726.5001,-208.7269 730,-218.7269 733.5001,-208.727 726.5001,-208.7269"/>
</g>
<!-- AuthService -->
<g id="node25" class="node">
<title>AuthService</title>
<ellipse fill="#fdb462" stroke="#000000" cx="705" cy="-104" rx="59.1083" ry="18"/>
<text text-anchor="middle" x="705" y="-99.8" font-family="Times,serif" font-size="14.00" fill="#000000">AuthService</text>
</g>
<!-- AuthService&#45;&gt;AppModule -->
<g id="edge24" class="edge">
<title>AuthService&#45;&gt;AppModule</title>
<path fill="none" stroke="#000000" d="M726.2378,-121.078C726.2378,-121.078 726.2378,-140.8993 726.2378,-140.8993"/>
<polygon fill="#000000" stroke="#000000" points="722.7379,-140.8992 726.2378,-150.8993 729.7379,-140.8993 722.7379,-140.8992"/>
</g>
<!-- MessagingService -->
<g id="node26" class="node">
<title>MessagingService</title>
<ellipse fill="#fdb462" stroke="#000000" cx="546" cy="-104" rx="81.6596" ry="18"/>
<text text-anchor="middle" x="546" y="-99.8" font-family="Times,serif" font-size="14.00" fill="#000000">MessagingService</text>
</g>
<!-- MessagingService&#45;&gt;AppModule -->
<g id="edge25" class="edge">
<title>MessagingService&#45;&gt;AppModule</title>
<path fill="none" stroke="#000000" d="M546,-122.0091C546,-138.0494 546,-159 546,-159 546,-159 678.2476,-159 678.2476,-159"/>
<polygon fill="#000000" stroke="#000000" points="678.2476,-162.5001 688.2476,-159 678.2475,-155.5001 678.2476,-162.5001"/>
</g>
<!-- RestService -->
<g id="node27" class="node">
<title>RestService</title>
<ellipse fill="#fdb462" stroke="#000000" cx="389" cy="-104" rx="57.3166" ry="18"/>
<text text-anchor="middle" x="389" y="-99.8" font-family="Times,serif" font-size="14.00" fill="#000000">RestService</text>
</g>
<!-- RestService&#45;&gt;AppModule -->
<g id="edge26" class="edge">
<title>RestService&#45;&gt;AppModule</title>
<path fill="none" stroke="#000000" d="M389,-122.2667C389,-140.5552 389,-166 389,-166 389,-166 678.1867,-166 678.1867,-166"/>
<polygon fill="#000000" stroke="#000000" points="678.1867,-169.5001 688.1867,-166 678.1867,-162.5001 678.1867,-169.5001"/>
</g>
<!-- TokenInterceptor -->
<g id="node28" class="node">
<title>TokenInterceptor</title>
<ellipse fill="#fdb462" stroke="#000000" cx="236" cy="-104" rx="78.1308" ry="18"/>
<text text-anchor="middle" x="236" y="-99.8" font-family="Times,serif" font-size="14.00" fill="#000000">TokenInterceptor</text>
</g>
<!-- TokenInterceptor&#45;&gt;AppModule -->
<g id="edge27" class="edge">
<title>TokenInterceptor&#45;&gt;AppModule</title>
<path fill="none" stroke="#000000" d="M236,-122.1289C236,-142.5724 236,-173 236,-173 236,-173 678.3076,-173 678.3076,-173"/>
<polygon fill="#000000" stroke="#000000" points="678.3076,-176.5001 688.3076,-173 678.3076,-169.5001 678.3076,-176.5001"/>
</g>
<!-- UserService -->
<g id="node29" class="node">
<title>UserService</title>
<ellipse fill="#fdb462" stroke="#000000" cx="82" cy="-104" rx="58.4415" ry="18"/>
<text text-anchor="middle" x="82" y="-99.8" font-family="Times,serif" font-size="14.00" fill="#000000">UserService</text>
</g>
<!-- UserService&#45;&gt;AppModule -->
<g id="edge28" class="edge">
<title>UserService&#45;&gt;AppModule</title>
<path fill="none" stroke="#000000" d="M82,-122.0109C82,-144.4852 82,-180 82,-180 82,-180 677.9822,-180 677.9822,-180"/>
<polygon fill="#000000" stroke="#000000" points="677.9822,-183.5001 687.9822,-180 677.9822,-176.5001 677.9822,-183.5001"/>
</g>
</g>
</svg>
